<?xml version="1.0" encoding="UTF-8" standalone="no"?>
<svg width="38px" height="28px" viewBox="0 0 38 28" version="1.1" xmlns="http://www.w3.org/2000/svg" xmlns:xlink="http://www.w3.org/1999/xlink" xmlns:sketch="http://www.bohemiancoding.com/sketch/ns">
    <!-- Generator: Sketch 3.3.1 (12005) - http://www.bohemiancoding.com/sketch -->
    <title>Artboard 1</title>
    <desc>Created with Sketch.</desc>
    <defs></defs>
    <g id="Page-1" stroke="none" stroke-width="1" fill="none" fill-rule="evenodd" sketch:type="MSPage">
        <g id="Artboard-1" sketch:type="MSArtboardGroup">
            <g id="logo-copy-2" sketch:type="MSLayerGroup" transform="translate(3.000000, 2.000000)">
                <rect id="Rectangle-2-Copy-10" stroke="#00D8FF" stroke-width="1.5" fill-opacity="0" fill="#00D8FF" sketch:type="MSShapeGroup" x="0" y="2" width="24" height="9" rx="1"></rect>
                <path d="M4.5,6.49252717 L12,6.49252717" id="Line-Copy-9" stroke="#00D8FF" stroke-width="3" stroke-linecap="square" opacity="0.5" sketch:type="MSShapeGroup"></path>
                <path d="M29.1181641,10.9065897 C28.754881,10.1076726 28.4755869,9.52038231 28.2802734,9.14470109 L27.9697266,8.55264946 L27.7353516,8.11752717 C27.2236303,7.14741363 26.6904325,6.34613088 26.1357422,5.71365489 C26.45215,5.39503917 26.7470689,5.2357337 27.0205078,5.2357337 C27.356447,5.2357337 27.6552721,5.38552839 27.9169922,5.68512228 C28.1787122,5.98471617 28.5087871,6.55536264 28.9072266,7.3970788 C29.3603538,5.60427093 29.9365199,3.90421999 30.6357422,2.296875 C31.0224629,1.42187062 31.367186,0.833391456 31.6699219,0.531419837 C31.9726578,0.229448218 32.3740209,0.0784646739 32.8740234,0.0784646739 C33.1396498,0.0784646739 33.4677715,0.12839624 33.8583984,0.22826087 C32.8544872,1.21264079 32.0517608,2.38246605 31.4501953,3.73777174 C30.8486298,5.09307743 30.0712938,7.48265951 29.1181641,10.9065897 L29.1181641,10.9065897 Z" id="✓-copy-2" fill="#00D8FF" sketch:type="MSShapeGroup"></path>
                <rect id="Rectangle-2-Copy-11" stroke="#00D8FF" stroke-width="1.5" fill-opacity="0" fill="#00D8FF" sketch:type="MSShapeGroup" x="0" y="15" width="24" height="9" rx="1"></rect>
                <path d="M4.5,19.4925272 L18,19.4925272" id="Line-Copy-10" stroke="#00D8FF" stroke-width="3" stroke-linecap="square" opacity="0.5" sketch:type="MSShapeGroup"></path>
                <path d="M29.1181641,23.9065897 C28.754881,23.1076726 28.4755869,22.5203823 28.2802734,22.1447011 L27.9697266,21.5526495 L27.7353516,21.1175272 C27.2236303,20.1474136 26.6904325,19.3461309 26.1357422,18.7136549 C26.45215,18.3950392 26.7470689,18.2357337 27.0205078,18.2357337 C27.356447,18.2357337 27.6552721,18.3855284 27.9169922,18.6851223 C28.1787122,18.9847162 28.5087871,19.5553626 28.9072266,20.3970788 C29.3603538,18.6042709 29.9365199,16.90422 30.6357422,15.296875 C31.0224629,14.4218706 31.367186,13.8333915 31.6699219,13.5314198 C31.9726578,13.2294482 32.3740209,13.0784647 32.8740234,13.0784647 C33.1396498,13.0784647 33.4677715,13.1283962 33.8583984,13.2282609 C32.8544872,14.2126408 32.0517608,15.382466 31.4501953,16.7377717 C30.8486298,18.0930774 30.0712938,20.4826595 29.1181641,23.9065897 L29.1181641,23.9065897 Z" id="✓-copy-4" fill="#00D8FF" sketch:type="MSShapeGroup"></path>
            </g>
        </g>
    </g>
</svg>